<?xml version="1.0" standalone="no"?>
<!DOCTYPE svg PUBLIC "-//W3C//DTD SVG 20010904//EN"
 "http://www.w3.org/TR/2001/REC-SVG-20010904/DTD/svg10.dtd">
<svg version="1.0" xmlns="http://www.w3.org/2000/svg"
 width="1280.000000pt" height="1280.000000pt" viewBox="0 0 1280.000000 1280.000000"
 preserveAspectRatio="xMidYMid meet">
<g transform="translate(0.000000,1280.000000) scale(0.100000,-0.100000)"
fill="#8bc34a" stroke="none">
<path d="M6210 12797 c-3 -3 -81 -10 -175 -16 -1138 -75 -2150 -403 -3085
-1000 -388 -248 -710 -510 -1066 -865 -262 -263 -447 -476 -632 -727 -711
-970 -1135 -2112 -1222 -3289 -6 -80 -15 -192 -20 -250 -13 -134 -13 -366 0
-500 5 -58 14 -170 20 -250 103 -1394 677 -2727 1626 -3780 845 -937 1957
-1608 3176 -1916 353 -89 715 -147 1073 -174 83 -6 194 -15 248 -21 125 -12
369 -12 494 0 54 6 166 15 248 21 1069 79 2103 432 3010 1028 828 543 1516
1269 2025 2137 96 164 274 518 348 693 274 647 441 1331 492 2012 6 80 15 192
20 250 13 134 13 366 0 500 -5 58 -14 170 -20 250 -80 1078 -444 2131 -1051
3042 -664 996 -1611 1799 -2699 2288 -608 274 -1279 455 -1940 524 -305 32
-854 59 -870 43z m510 -547 c844 -52 1587 -251 2320 -621 1385 -698 2438
-1921 2925 -3396 143 -431 232 -875 277 -1373 16 -183 16 -741 0 -920 -73
-798 -264 -1485 -601 -2159 -856 -1708 -2493 -2896 -4376 -3175 -318 -47 -504
-60 -865 -60 -454 0 -747 29 -1170 114 -2053 416 -3735 1911 -4396 3908 -411
1244 -386 2639 69 3862 679 1825 2208 3192 4092 3659 551 136 1175 194 1725
161z"/>
<path d="M2910 9371 c-48 -15 -87 -40 -123 -80 -72 -80 -67 103 -67 -2361 0
-2502 -7 -2284 80 -2370 85 -86 -21 -80 1462 -80 l1308 0 0 -419 0 -420 -164
-3 c-157 -3 -166 -4 -189 -26 -14 -13 -28 -35 -31 -48 -8 -29 16 -79 43 -94
28 -14 2315 -14 2343 1 11 6 26 26 34 44 16 39 8 69 -26 100 -20 18 -39 20
-186 23 l-164 3 0 420 0 419 1308 0 c1483 0 1377 -6 1462 80 87 86 80 -132 80
2370 0 1926 -2 2223 -15 2266 -18 60 -72 127 -129 157 l-41 22 -3480 2 c-1914
1 -3491 -2 -3505 -6z m6824 -307 c15 -6 16 -202 16 -2119 0 -1917 -1 -2113
-16 -2119 -20 -8 -6648 -8 -6668 0 -15 6 -16 202 -16 2119 0 1681 3 2114 13
2118 18 8 6652 8 6671 1z"/>
<path d="M9054 8230 c-27 -11 -72 -65 -80 -96 -4 -14 -4 -40 -1 -59 5 -33 -8
-48 -470 -554 l-475 -521 -43 0 c-29 0 -54 -8 -81 -26 l-38 -26 -261 47 c-143
26 -410 76 -594 110 l-334 62 -34 41 c-94 114 -253 54 -253 -96 0 -38 -11 -49
-464 -495 -463 -455 -464 -456 -499 -450 -23 3 -54 -1 -87 -13 l-50 -18 -178
72 c-448 183 -556 229 -562 243 -50 109 -76 133 -148 133 -93 0 -149 -68 -137
-168 l6 -51 -339 -400 -338 -400 -56 -5 c-45 -4 -63 -11 -87 -34 -88 -84 -43
-222 77 -234 92 -8 152 48 152 145 l0 52 345 411 c282 334 350 410 370 410 14
0 44 5 68 12 43 11 46 10 368 -122 460 -188 426 -172 445 -220 40 -100 160
-118 234 -34 25 28 30 43 30 83 l0 49 463 454 462 455 63 5 c50 3 67 9 90 31
15 15 36 27 46 27 10 0 275 -47 589 -105 510 -94 574 -108 589 -128 9 -12 26
-34 38 -49 40 -52 129 -60 184 -17 41 32 59 76 53 127 -5 42 -2 47 46 101 211
233 792 868 841 919 52 53 66 62 96 62 74 0 138 54 146 126 13 100 -97 183
-192 144z"/>
</g>
</svg>
